<?xml version="1.0" encoding="utf-8"?>
<!-- Generator: Adobe Illustrator 25.2.3, SVG Export Plug-In . SVG Version: 6.00 Build 0)  -->
<svg version="1.1" id="Layer_1" xmlns="http://www.w3.org/2000/svg" xmlns:xlink="http://www.w3.org/1999/xlink" x="0px" y="0px"
	 viewBox="0 0 2200 620" style="enable-background:new 0 0 2200 620;" xml:space="preserve">
<style type="text/css">
	.st0{fill:#FEB62C;}
</style>
<path class="st0" d="M1877.7,30.4l-49.1,67.2l147.8,107.9c-97,0.3-165.4,1.4-226.9,2.3c-54.6,0.8-80,1.5-134.9,1.5
	c-148.6,0-222.8,99.4-282.5,179.2c-50.9,68.1-84.9,109.9-138.8,109.9c-50.4,0-85-39.4-137.3-103.6
	c-58.2-71.5-130.6-160.6-258.8-160.6c-106.1,0-169.9,83.8-226.2,157.7c-46.7,61.4-87.1,114.4-139.8,114.4
	c-66.1,0-82.7-28.7-112.9-80.7C278.1,356.6,223.2,262,20.3,262v83.2c155,0,189.4,59.4,225.9,122.2c31.6,54.4,70.8,122.2,184.9,122.2
	c93.9,0,153.5-78.2,206-147.2c48.9-64.2,95.1-124.9,160-124.9c88.6,0,139.9,63.1,194.3,129.9c53.7,66,109.3,134.3,201.9,134.3
	c98.4,0,152.9-72.9,205.5-143.3c56-75,108.9-145.8,215.8-145.8c55.5,0,81.3-0.7,136.2-1.6c63.7-1,134.8-2.1,237.6-2.3l-151.7,111.9
	l49.4,67l293.7-216.7L1877.7,30.4z"/>
</svg>
